<svg width="35" height="35" viewBox="0 0 35 35" fill="none" xmlns="http://www.w3.org/2000/svg">
<path d="M24.8872 0C24.6611 0 24.4718 0.169066 24.4456 0.393066L24.2401 2.16357C23.3916 2.45753 22.6248 2.90466 21.9597 3.47949L20.3162 2.77197C20.1094 2.68272 19.8703 2.76054 19.7581 2.95654L18.1146 5.79346C18.0007 5.98771 18.0539 6.23634 18.2344 6.37109L19.652 7.42041C19.5688 7.85139 19.515 8.29481 19.515 8.75C19.515 9.20519 19.5688 9.64861 19.652 10.0796L18.2344 11.1289C18.0539 11.2619 18.0024 11.5105 18.1146 11.7065L19.7581 14.5435C19.8703 14.7395 20.1094 14.8207 20.3162 14.7314L21.9597 14.0205C22.6248 14.5953 23.3916 15.0425 24.2401 15.3364L24.4456 17.1069C24.4718 17.3309 24.6611 17.5 24.8872 17.5H28.1674C28.3936 17.5 28.5828 17.3309 28.6091 17.1069L28.8146 15.3364C29.6639 15.0422 30.4329 14.5962 31.0984 14.0205L32.7384 14.7246C32.9453 14.8139 33.1844 14.736 33.2966 14.54L34.9401 11.7031C35.054 11.5089 35.0008 11.2602 34.8202 11.1255L33.4061 10.0762C33.4888 9.64632 33.5397 9.20391 33.5397 8.75C33.5397 8.29481 33.4858 7.85139 33.4027 7.42041L34.8202 6.37109C35.0008 6.23809 35.0523 5.98946 34.9401 5.79346L33.2966 2.95654C33.1844 2.76054 32.9453 2.6793 32.7384 2.76855L31.0949 3.47949C30.4299 2.90466 29.6631 2.45753 28.8146 2.16357L28.6091 0.393066C28.5828 0.169066 28.3936 0 28.1674 0H24.8872ZM26.5273 5.6875C28.2208 5.6875 29.5952 7.0595 29.5952 8.75C29.5952 10.4423 28.2208 11.8125 26.5273 11.8125C24.8339 11.8125 23.4594 10.4423 23.4594 8.75C23.4594 7.0595 24.8339 5.6875 26.5273 5.6875ZM9.10953 12.25C8.88338 12.25 8.69413 12.4191 8.66783 12.6431L8.3631 15.2441C6.9479 15.646 5.67039 16.3666 4.64465 17.3633L2.26156 16.3379C2.05469 16.2486 1.81565 16.3265 1.70345 16.5225L0.0599355 19.3594C-0.0540149 19.5536 -0.000792308 19.8023 0.179775 19.937L2.27868 21.4888C2.10482 22.1761 1.98421 22.8838 1.98421 23.625C1.98421 24.3662 2.10482 25.0739 2.27868 25.7612L0.179775 27.3164C-0.000792308 27.4494 -0.0522618 27.698 0.0599355 27.894L1.70345 30.731C1.81565 30.927 2.05469 31.0048 2.26156 30.9155L4.64465 29.8867C5.67039 30.8834 6.9479 31.604 8.3631 32.0059L8.66783 34.6069C8.69413 34.8309 8.88338 35 9.10953 35H12.3897C12.6159 35 12.8051 34.8309 12.8314 34.6069L13.1361 32.0059C14.5513 31.604 15.8288 30.8834 16.8546 29.8867L19.2377 30.9121C19.4445 31.0014 19.6836 30.9235 19.7958 30.7275L21.4393 27.8906C21.5532 27.6964 21.5 27.4477 21.3195 27.313L19.2206 25.7612C19.3944 25.0739 19.515 24.3662 19.515 23.625C19.515 22.8838 19.3944 22.1761 19.2206 21.4888L21.3195 19.9336C21.5 19.8006 21.5515 19.552 21.4393 19.356L19.7958 16.519C19.6836 16.323 19.4445 16.2452 19.2377 16.3345L16.8546 17.3633C15.8288 16.3666 14.5513 15.646 13.1361 15.2441L12.8314 12.6431C12.8051 12.4191 12.6159 12.25 12.3897 12.25H9.10953ZM10.7496 20.125C12.6868 20.125 14.2558 21.6912 14.2558 23.625C14.2558 25.5588 12.6868 27.125 10.7496 27.125C8.81246 27.125 7.24346 25.5588 7.24346 23.625C7.24346 21.6912 8.81246 20.125 10.7496 20.125Z" fill="white"/>
</svg>
