<svg width="30" height="30" viewBox="0 0 30 30" fill="none" xmlns="http://www.w3.org/2000/svg">
<path d="M13.75 0V3.91304H16.25V0H13.75ZM5.27832 3.66338L3.51074 5.50781L6.16211 8.27446L7.92969 6.43003L5.27832 3.66338ZM24.7217 3.66338L22.0703 6.43003L23.8379 8.27446L26.4893 5.50781L24.7217 3.66338ZM15 6.52174C10.175 6.52174 6.25 10.6174 6.25 15.6522C6.25 19.2848 8.29875 22.4197 11.25 23.8884V27.3913C11.25 28.83 12.3713 30 13.75 30H16.25C17.6287 30 18.75 28.83 18.75 27.3913V23.8884C21.7013 22.4197 23.75 19.2848 23.75 15.6522C23.75 10.6174 19.825 6.52174 15 6.52174ZM0 14.3478V16.9565H3.75V14.3478H0ZM26.25 14.3478V16.9565H30V14.3478H26.25ZM6.16211 23.0299L3.51074 25.7965L5.27832 27.641L7.92969 24.8743L6.16211 23.0299ZM23.8379 23.0299L22.0703 24.8743L24.7217 27.641L26.4893 25.7965L23.8379 23.0299Z" fill="white"/>
</svg>
