<svg width="30" height="30" viewBox="0 0 30 30" fill="none" xmlns="http://www.w3.org/2000/svg">
<g clip-path="url(#clip0_142_3)">
<rect x="3.06812" y="4.77271" width="22.1591" height="22.1591" fill="#A1A1AA"/>
<path d="M26.9319 -0.340881H3.06827C1.18475 -0.340881 -0.34082 1.18469 -0.34082 3.06821V26.9318C-0.34082 28.8154 1.18475 30.3409 3.06827 30.3409H26.9319C28.8154 30.3409 30.341 28.8154 30.341 26.9318V3.06821C30.341 1.18469 28.8154 -0.340881 26.9319 -0.340881ZM9.88645 23.5228H5.58588V11.5909H9.88645V23.5228ZM7.66032 9.40401C6.34611 9.40401 5.46827 8.52787 5.46827 7.35855C5.46827 6.18923 6.34441 5.3131 7.8052 5.3131C9.11941 5.3131 9.99725 6.18923 9.99725 7.35855C9.99725 8.52787 9.12111 9.40401 7.66032 9.40401ZM25.2274 23.5228H21.0649V17.0012C21.0649 15.1978 19.9552 14.7818 19.5393 14.7818C19.1234 14.7818 17.7359 15.0597 17.7359 17.0012C17.7359 17.279 17.7359 23.5228 17.7359 23.5228H13.4353V11.5909H17.7359V13.2563C18.2899 12.2847 19.3995 11.5909 21.4808 11.5909C23.562 11.5909 25.2274 13.2563 25.2274 17.0012V23.5228Z" fill="#0C0E12"/>
</g>
<defs>
<clipPath id="clip0_142_3">
<rect width="30" height="30" rx="5" fill="white"/>
</clipPath>
</defs>
</svg>
